<?xml version="1.0" encoding="utf-8"?>
<!-- Generator: Adobe Illustrator 23.0.0, SVG Export Plug-In . SVG Version: 6.00 Build 0)  -->
<svg version="1.1" id="Capa_1" xmlns="http://www.w3.org/2000/svg" xmlns:xlink="http://www.w3.org/1999/xlink" x="0px" y="0px"
	 viewBox="0 0 242.65 153.01" style="enable-background:new 0 0 242.65 153.01;" xml:space="preserve">
<style type="text/css">
	.st0{fill:#DDDDDD;}
	.st1{fill:#2C5170;}
	.st2{fill:#386899;}
</style>
<g>
	<rect class="st0" width="242.65" height="153.01"/>
</g>
<path class="st1" d="M131.89,31.48L131.89,31.48c-3.38,0-6.11,2.74-6.11,6.11v65.53c0,3.38,2.74,6.11,6.11,6.11h0
	c3.38,0,6.11-2.74,6.11-6.11V37.59C138.01,34.22,135.27,31.48,131.89,31.48z"/>
<path class="st2" d="M89.14,53.78c-15.32,0-27.73,12.41-27.73,27.73c0,3.34,0.59,6.55,1.68,9.52c0.52,1.42,1.15,2.78,1.88,4.07
	c1.25,2.21,2.79,4.24,4.57,6.02c1.31,1.31,2.74,2.48,4.28,3.51c4.39,2.92,9.66,4.62,15.32,4.62h27.73V81.51
	C116.87,66.2,104.45,53.78,89.14,53.78z M104.64,97.01h-15.5c-2.64,0-5.13-0.66-7.31-1.83c-4.88-2.61-8.19-7.76-8.19-13.67
	c0-0.57,0.03-1.14,0.09-1.69c0.33-3.02,1.52-5.77,3.32-8.02c0.35-0.44,0.73-0.86,1.12-1.25c0.82-0.82,1.74-1.56,2.73-2.18
	c2.38-1.5,5.21-2.36,8.23-2.36c4.28,0,8.16,1.73,10.96,4.54c2.81,2.81,4.54,6.68,4.54,10.96V97.01z"/>
<path class="st2" d="M153.51,53.78L153.51,53.78c-15.31,0-27.73,12.41-27.73,27.73v27.73h27.73c15.31,0,27.73-12.41,27.73-27.73v0
	C181.24,66.2,168.82,53.78,153.51,53.78z M169.01,81.51c0,8.56-6.94,15.5-15.5,15.5h-15.5v-15.5c0-8.56,6.94-15.5,15.5-15.5h0
	C162.07,66.01,169.01,72.95,169.01,81.51L169.01,81.51z"/>
</svg>
